<svg id="Layer_1" data-name="Layer 1" xmlns="http://www.w3.org/2000/svg" viewBox="0 0 32 32"><defs><style>.cls-1{fill:#004d9a;}.cls-1,.cls-2{stroke:#004d9a;stroke-miterlimit:10;}.cls-2{fill:#fff;}</style></defs><path class="cls-1" d="M20.18,8.88v15H11.44a3.12,3.12,0,0,0-6.07,0H3.47A.87.87,0,0,1,2.59,23V8.88A.87.87,0,0,1,3.47,8H19.3A.88.88,0,0,1,20.18,8.88Z"/><path class="cls-1" d="M28.18,23.88h0a.65.65,0,0,0,.65-.65v-3a2.15,2.15,0,0,0-.22-.93l-2.85-5.62a.82.82,0,0,0-.75-.46H20.18V23.88H22.1"/><path class="cls-2" d="M25.77,14.63H22.09a.47.47,0,0,0-.47.47v3.21a.47.47,0,0,0,.47.47H27.4a.49.49,0,0,0,.44-.71l-1.56-3.13A.57.57,0,0,0,25.77,14.63Z"/><path class="cls-2" d="M11.53,24.59a3.12,3.12,0,0,1-6.17.68,3.25,3.25,0,0,1,0-1.39,3.12,3.12,0,0,1,6.07,0A2.82,2.82,0,0,1,11.53,24.59Z"/><path class="cls-2" d="M28.26,24.59a3.12,3.12,0,0,1-6.17.68,3.25,3.25,0,0,1,0-1.39,3.12,3.12,0,0,1,6.08,0A3.36,3.36,0,0,1,28.26,24.59Z"/></svg>